<svg width="81" height="79" viewBox="0 0 81 79" fill="none" xmlns="http://www.w3.org/2000/svg">
<rect width="25.1624" height="6.2906" transform="matrix(-0.72074 0.693205 0.72074 0.693205 18.1355 57.1966)" fill="white"/>
<path fill-rule="evenodd" clip-rule="evenodd" d="M44.2696 65.7708C28.041 65.7708 14.8852 52.6834 14.8852 36.5393C14.8852 20.3952 28.041 7.30786 44.2696 7.30786C60.4981 7.30786 73.6539 20.3952 73.6539 36.5393C73.6539 52.6834 60.4981 65.7708 44.2696 65.7708ZM44.2696 73.0786C23.9839 73.0786 7.53917 56.7194 7.53917 36.5393C7.53917 16.3592 23.9839 0 44.2696 0C64.5552 0 80.9999 16.3592 80.9999 36.5393C80.9999 56.7194 64.5552 73.0786 44.2696 73.0786Z" fill="white"/>
<path d="M42 24L42 48.9999L47.9954 48.9999L47.9955 23.9999L42 24Z" fill="white"/>
<path d="M57.2336 33.9999L32.2336 33.9999L32.2336 39.9954L57.2336 39.9954L57.2336 33.9999Z" fill="white"/>
</svg>
