<svg width="188" height="42" viewBox="0 0 188 42" fill="none" xmlns="http://www.w3.org/2000/svg">
<path d="M3.026 34.5033L0.315119 30.6662H2.27338L4.11473 33.411L5.97069 30.6662H7.91434L5.19616 34.5033L8.05317 38.5105H6.10953L4.11473 35.5742L2.12724 38.5105H0.183594L3.026 34.5033Z" fill="white"/>
<path d="M8.24315 30.6662H10.1137L11.7578 35.1132C12.0062 35.7468 12.1719 36.3426 12.2547 36.9005H12.3131C12.357 36.6405 12.4373 36.326 12.5543 35.9572C12.6712 35.5837 13.2898 33.82 14.4102 30.6662H16.2662L12.81 39.5531C12.1816 41.1844 11.1343 42 9.66801 42C9.28805 42 8.91783 41.9598 8.55735 41.8794V40.5602C8.81553 40.617 9.11024 40.6453 9.44149 40.6453C10.2696 40.6453 10.8517 40.1796 11.1879 39.2481L11.4874 38.5105L8.24315 30.6662Z" fill="white"/>
<path d="M25.2464 41.2837H23.6462V38.5105H18.1075V41.2837H16.5219V37.2197H17.1795C17.7544 36.4206 18.2098 35.456 18.5459 34.326C18.8869 33.1912 19.0891 31.9712 19.1524 30.6662H24.0627V37.2197H25.2464V41.2837ZM22.3748 37.2197V31.9429H20.6357C20.5432 32.9169 20.3483 33.8768 20.0512 34.8224C19.7589 35.7681 19.4009 36.5672 18.9771 37.2197H22.3748Z" fill="white"/>
<path d="M33.9125 34.5742C33.9125 35.8556 33.5739 36.8556 32.8968 37.5743C32.2197 38.293 31.2771 38.6524 30.069 38.6524C29.3139 38.6524 28.6466 38.4869 28.0669 38.1559C27.4872 37.8249 27.0415 37.3497 26.7297 36.7303C26.418 36.1109 26.2621 35.3922 26.2621 34.5742C26.2621 33.3023 26.5982 32.3093 27.2704 31.5953C27.9427 30.8814 28.8901 30.5244 30.1128 30.5244C31.282 30.5244 32.2075 30.8908 32.8895 31.6237C33.5715 32.3519 33.9125 33.3354 33.9125 34.5742ZM28.0304 34.5742C28.0304 36.3851 28.7197 37.2906 30.0982 37.2906C31.4622 37.2906 32.1442 36.3851 32.1442 34.5742C32.1442 32.7822 31.4573 31.8861 30.0836 31.8861C29.3627 31.8861 28.839 32.1178 28.5126 32.5812C28.1911 33.0446 28.0304 33.7089 28.0304 34.5742Z" fill="white"/>
<path d="M39.8749 34.4749V30.6662H41.4751V34.4749L44.5879 30.6662H46.4L43.2215 34.4607L46.685 38.5105H44.7925L41.4751 34.5316V38.5105H39.8749V34.5316L36.5649 38.5105H34.6797L38.1359 34.4607L34.9647 30.6662H36.7768L39.8749 34.4749Z" fill="white"/>
<path d="M51.4637 38.6524C50.2069 38.6524 49.2229 38.2977 48.5117 37.5885C47.8054 36.8745 47.4522 35.8934 47.4522 34.6451C47.4522 33.3637 47.781 32.3566 48.4387 31.6237C49.0963 30.8908 49.9999 30.5244 51.1495 30.5244C52.2164 30.5244 53.0591 30.8388 53.6777 31.4677C54.2964 32.0965 54.6057 32.9618 54.6057 34.0635V34.9643H49.2205C49.2449 35.7255 49.4568 36.3118 49.8562 36.7232C50.2557 37.1298 50.8183 37.3332 51.5441 37.3332C52.0215 37.3332 52.4648 37.2906 52.874 37.2055C53.288 37.1157 53.7313 36.9691 54.2038 36.7658V38.1204C53.7849 38.3143 53.3611 38.4514 52.9324 38.5318C52.5038 38.6122 52.0142 38.6524 51.4637 38.6524ZM51.1495 31.7868C50.604 31.7868 50.1655 31.9547 49.8343 32.2904C49.5079 32.6261 49.3131 33.1155 49.2497 33.7586H52.9178C52.9081 33.1108 52.7473 32.6214 52.4356 32.2904C52.1238 31.9547 51.6951 31.7868 51.1495 31.7868Z" fill="white"/>
<path d="M59.8156 38.6524C58.5929 38.6524 57.6625 38.3072 57.0243 37.6169C56.3911 36.9218 56.0744 35.9265 56.0744 34.6309C56.0744 33.3117 56.4057 32.2975 57.0682 31.5883C57.7355 30.879 58.6976 30.5244 59.9544 30.5244C60.8069 30.5244 61.5741 30.6781 62.2561 30.9854L61.7373 32.3259C61.0115 32.0516 60.4123 31.9145 59.9398 31.9145C58.5417 31.9145 57.8427 32.8153 57.8427 34.6167C57.8427 35.4962 58.0156 36.1582 58.3615 36.6026C58.7122 37.0424 59.2237 37.2622 59.896 37.2622C60.6607 37.2622 61.3841 37.0778 62.0661 36.709V38.163C61.7592 38.3379 61.4304 38.4632 61.0797 38.5389C60.7338 38.6145 60.3124 38.6524 59.8156 38.6524Z" fill="white"/>
<path d="M70.038 30.6662V31.9712H67.4075V38.5105H65.6831V31.9712H63.0526V30.6662H70.038Z" fill="white"/>
<path d="M78.609 32.6734C78.609 33.6002 78.0513 34.1605 76.9357 34.3543V34.4111C77.5593 34.482 78.0367 34.6735 78.3679 34.9856C78.6992 35.2976 78.8648 35.7019 78.8648 36.1984C78.8648 36.9407 78.5725 37.5128 77.988 37.9147C77.4083 38.3119 76.5631 38.5105 75.4524 38.5105H71.5944V30.6662H75.4378C77.552 30.6662 78.609 31.3353 78.609 32.6734ZM77.1038 36.0991C77.1038 35.7208 76.9528 35.4537 76.6508 35.2976C76.3488 35.1369 75.8957 35.0565 75.2917 35.0565H73.3115V37.2764H75.3355C76.5144 37.2764 77.1038 36.884 77.1038 36.0991ZM76.8919 32.8153C76.8919 32.5032 76.7653 32.2786 76.5119 32.1415C76.2635 31.9996 75.8909 31.9287 75.394 31.9287H73.3115V33.8153H75.1382C75.7131 33.8153 76.149 33.7444 76.4462 33.6025C76.7433 33.4559 76.8919 33.1935 76.8919 32.8153Z" fill="white"/>
<path d="M84.1696 38.6524C82.9128 38.6524 81.9288 38.2977 81.2176 37.5885C80.5113 36.8745 80.1581 35.8934 80.1581 34.6451C80.1581 33.3637 80.4869 32.3566 81.1445 31.6237C81.8022 30.8908 82.7058 30.5244 83.8554 30.5244C84.9222 30.5244 85.765 30.8388 86.3836 31.4677C87.0023 32.0965 87.3116 32.9618 87.3116 34.0635V34.9643H81.9264C81.9508 35.7255 82.1627 36.3118 82.5621 36.7232C82.9615 37.1298 83.5242 37.3332 84.25 37.3332C84.7274 37.3332 85.1707 37.2906 85.5799 37.2055C85.9939 37.1157 86.4372 36.9691 86.9097 36.7658V38.1204C86.4908 38.3143 86.067 38.4514 85.6383 38.5318C85.2096 38.6122 84.7201 38.6524 84.1696 38.6524ZM83.8554 31.7868C83.3098 31.7868 82.8714 31.9547 82.5402 32.2904C82.2138 32.6261 82.019 33.1155 81.9556 33.7586H85.6237C85.614 33.1108 85.4532 32.6214 85.1414 32.2904C84.8297 31.9547 84.401 31.7868 83.8554 31.7868Z" fill="white"/>
<path d="M90.9797 30.6662V33.8153H94.7866V30.6662H96.5038V38.5105H94.7866V35.1274H90.9797V38.5105H89.2626V30.6662H90.9797Z" fill="white"/>
<path d="M100.683 30.6662V33.8153H104.49V30.6662H106.207V38.5105H104.49V35.1274H100.683V38.5105H98.9662V30.6662H100.683Z" fill="white"/>
<path d="M113.726 38.5105L113.383 37.4183H113.324C112.935 37.8958 112.542 38.2221 112.148 38.397C111.753 38.5673 111.247 38.6524 110.628 38.6524C109.834 38.6524 109.213 38.4443 108.765 38.0282C108.322 37.6121 108.1 37.0235 108.1 36.2622C108.1 35.4537 108.409 34.8437 109.028 34.4323C109.646 34.021 110.589 33.7964 111.856 33.7586L113.251 33.716V33.2975C113.251 32.7963 113.129 32.4228 112.886 32.1769C112.647 31.9263 112.275 31.801 111.768 31.801C111.354 31.801 110.957 31.8601 110.577 31.9783C110.197 32.0965 109.832 32.236 109.481 32.3968L108.926 31.2053C109.364 30.983 109.844 30.8152 110.365 30.7017C110.886 30.5835 111.378 30.5244 111.841 30.5244C112.869 30.5244 113.643 30.7419 114.165 31.1769C114.691 31.6119 114.954 32.2951 114.954 33.2266V38.5105H113.726ZM111.169 37.3757C111.792 37.3757 112.292 37.2079 112.667 36.8721C113.047 36.5317 113.237 36.0565 113.237 35.4466V34.7657L112.199 34.8082C111.39 34.8366 110.801 34.969 110.431 35.2054C110.065 35.4371 109.883 35.7941 109.883 36.2764C109.883 36.6263 109.99 36.8982 110.204 37.092C110.419 37.2811 110.74 37.3757 111.169 37.3757Z" fill="white"/>
<path d="M118.176 38.5105H116.254L118.505 35.2976C117.959 35.1463 117.531 34.8768 117.219 34.4891C116.907 34.0966 116.751 33.612 116.751 33.0351C116.751 32.2928 117.024 31.7136 117.57 31.2975C118.115 30.8766 118.861 30.6662 119.806 30.6662H123.488V38.5105H121.764V35.4891H120.134L118.176 38.5105ZM118.425 33.0493C118.425 33.4512 118.58 33.7538 118.892 33.9571C119.209 34.1557 119.633 34.255 120.164 34.255H121.764V31.9287H119.893C119.426 31.9287 119.063 32.0256 118.805 32.2195C118.551 32.4133 118.425 32.69 118.425 33.0493Z" fill="white"/>
<path d="M135.055 30.6662V31.9712H131.548V38.5105H129.831V30.6662H135.055Z" fill="white"/>
<path d="M141.668 38.5105L141.325 37.4183H141.266C140.876 37.8958 140.484 38.2221 140.09 38.397C139.695 38.5673 139.188 38.6524 138.57 38.6524C137.776 38.6524 137.155 38.4443 136.707 38.0282C136.263 37.6121 136.042 37.0235 136.042 36.2622C136.042 35.4537 136.351 34.8437 136.97 34.4323C137.588 34.021 138.531 33.7964 139.797 33.7586L141.193 33.716V33.2975C141.193 32.7963 141.071 32.4228 140.828 32.1769C140.589 31.9263 140.216 31.801 139.71 31.801C139.296 31.801 138.899 31.8601 138.519 31.9783C138.139 32.0965 137.773 32.236 137.423 32.3968L136.867 31.2053C137.306 30.983 137.786 30.8152 138.307 30.7017C138.828 30.5835 139.32 30.5244 139.783 30.5244C140.811 30.5244 141.585 30.7419 142.106 31.1769C142.632 31.6119 142.896 32.2951 142.896 33.2266V38.5105H141.668ZM139.111 37.3757C139.734 37.3757 140.233 37.2079 140.608 36.8721C140.988 36.5317 141.178 36.0565 141.178 35.4466V34.7657L140.141 34.8082C139.332 34.8366 138.743 34.969 138.373 35.2054C138.007 35.4371 137.825 35.7941 137.825 36.2764C137.825 36.6263 137.932 36.8982 138.146 37.092C138.36 37.2811 138.682 37.3757 139.111 37.3757Z" fill="white"/>
<path d="M151.934 38.5105H150.202V31.9712H147.974C147.837 33.6545 147.652 34.969 147.419 35.9147C147.19 36.8603 146.888 37.5507 146.512 37.9857C146.142 38.4207 145.66 38.6382 145.066 38.6382C144.691 38.6382 144.376 38.5862 144.123 38.4821V37.1771C144.303 37.2433 144.484 37.2764 144.664 37.2764C145.161 37.2764 145.55 36.735 145.833 35.6522C146.12 34.5647 146.344 32.9027 146.505 30.6662H151.934V38.5105Z" fill="white"/>
<path d="M157.926 38.6524C156.669 38.6524 155.685 38.2977 154.974 37.5885C154.268 36.8745 153.914 35.8934 153.914 34.6451C153.914 33.3637 154.243 32.3566 154.901 31.6237C155.558 30.8908 156.462 30.5244 157.612 30.5244C158.679 30.5244 159.521 30.8388 160.14 31.4677C160.759 32.0965 161.068 32.9618 161.068 34.0635V34.9643H155.683C155.707 35.7255 155.919 36.3118 156.318 36.7232C156.718 37.1298 157.28 37.3332 158.006 37.3332C158.484 37.3332 158.927 37.2906 159.336 37.2055C159.75 37.1157 160.194 36.9691 160.666 36.7658V38.1204C160.247 38.3143 159.823 38.4514 159.395 38.5318C158.966 38.6122 158.476 38.6524 157.926 38.6524ZM157.612 31.7868C157.066 31.7868 156.628 31.9547 156.296 32.2904C155.97 32.6261 155.775 33.1155 155.712 33.7586H159.38C159.37 33.1108 159.21 32.6214 158.898 32.2904C158.586 31.9547 158.157 31.7868 157.612 31.7868Z" fill="white"/>
<path d="M167.118 38.6524C166.095 38.6524 165.301 38.2954 164.736 37.5814H164.634C164.702 38.2434 164.736 38.6453 164.736 38.7871V42H163.019V30.6662H164.407C164.446 30.8128 164.527 31.1627 164.648 31.7159H164.736C165.272 30.9216 166.076 30.5244 167.147 30.5244C168.156 30.5244 168.94 30.879 169.5 31.5883C170.065 32.2975 170.348 33.2928 170.348 34.5742C170.348 35.8556 170.06 36.8556 169.486 37.5743C168.916 38.293 168.126 38.6524 167.118 38.6524ZM166.702 31.8861C166.02 31.8861 165.52 32.08 165.204 32.4677C164.892 32.8554 164.736 33.4749 164.736 34.326V34.5742C164.736 35.5293 164.892 36.222 165.204 36.6523C165.515 37.0778 166.024 37.2906 166.731 37.2906C167.325 37.2906 167.783 37.0542 168.104 36.5814C168.426 36.1085 168.587 35.4347 168.587 34.56C168.587 33.6805 168.426 33.0162 168.104 32.567C167.788 32.1131 167.32 31.8861 166.702 31.8861Z" fill="white"/>
<path d="M175.872 38.6524C174.615 38.6524 173.631 38.2977 172.92 37.5885C172.213 36.8745 171.86 35.8934 171.86 34.6451C171.86 33.3637 172.189 32.3566 172.847 31.6237C173.504 30.8908 174.408 30.5244 175.558 30.5244C176.624 30.5244 177.467 30.8388 178.086 31.4677C178.704 32.0965 179.014 32.9618 179.014 34.0635V34.9643H173.629C173.653 35.7255 173.865 36.3118 174.264 36.7232C174.664 37.1298 175.226 37.3332 175.952 37.3332C176.43 37.3332 176.873 37.2906 177.282 37.2055C177.696 37.1157 178.139 36.9691 178.612 36.7658V38.1204C178.193 38.3143 177.769 38.4514 177.34 38.5318C176.912 38.6122 176.422 38.6524 175.872 38.6524ZM175.558 31.7868C175.012 31.7868 174.574 31.9547 174.242 32.2904C173.916 32.6261 173.721 33.1155 173.658 33.7586H177.326C177.316 33.1108 177.155 32.6214 176.844 32.2904C176.532 31.9547 176.103 31.7868 175.558 31.7868Z" fill="white"/>
<path d="M181.79 38.5105H179.869L182.119 35.2976C181.574 35.1463 181.145 34.8768 180.833 34.4891C180.521 34.0966 180.366 33.612 180.366 33.0351C180.366 32.2928 180.638 31.7136 181.184 31.2975C181.73 30.8766 182.475 30.6662 183.42 30.6662H187.103V38.5105H185.378V35.4891H183.749L181.79 38.5105ZM182.039 33.0493C182.039 33.4512 182.195 33.7538 182.506 33.9571C182.823 34.1557 183.247 34.255 183.778 34.255H185.378V31.9287H183.508C183.04 31.9287 182.677 32.0256 182.419 32.2195C182.165 32.4133 182.039 32.69 182.039 33.0493Z" fill="white"/>
<path d="M0 22.7342H12.6452C17.6323 22.7342 20.1851 20.542 20.1851 16.3686V16.3037C20.1851 13.2021 18.5621 11.3184 15.4346 10.7825V10.4902C18.055 10.0031 19.4243 8.3467 19.4243 5.65108V5.56988C19.4243 1.89993 17.0407 0 12.3748 0H0V22.7342ZM4.9871 9.30479V3.21527H10.8871C13.2707 3.21527 14.4541 4.22207 14.4541 6.20319V6.26815C14.4541 8.28175 13.2707 9.30479 10.8871 9.30479H4.9871ZM4.9871 19.5027V12.2602H11.0392C13.6596 12.2602 14.9613 13.4619 14.9613 15.8165V15.8815C14.9613 18.2848 13.6596 19.5027 11.0392 19.5027H4.9871Z" fill="white"/>
<path d="M24.8827 0V22.7342H29.8022V0H24.8827Z" fill="white"/>
<path d="M40.0956 23.1564C44.0683 23.1564 46.9592 21.4514 48.0242 18.5609L48.3623 18.6421C47.7199 21.7924 48.3961 23.1564 52.2844 23.1564C52.7746 23.1564 53.2649 23.1077 53.6706 23.0427L54.2454 20.2334L53.4001 20.2172C52.4703 20.201 52.1998 19.9899 52.1998 18.8369V11.0261C52.1998 7.16128 49.5288 5.31006 43.8317 5.31006C37.7795 5.31006 34.7197 7.59972 34.9732 11.562L39.8251 11.9517C39.6222 9.33727 41.0085 8.15184 43.7302 8.15184C46.1646 8.15184 47.3142 9.01249 47.3142 10.9774V11.9355L42.513 12.7799C37.7119 13.6405 34.5337 15.102 34.5337 18.6745V18.7232C34.5337 21.5488 36.5285 23.1564 40.0956 23.1564ZM42.0566 20.0061C40.3999 20.0061 39.5039 19.4378 39.5039 18.2686V18.2361C39.5039 16.5635 41.0761 15.8815 44.1867 15.2969L47.3142 14.7123V15.508C47.3142 18.1224 44.8629 20.0061 42.0566 20.0061Z" fill="white"/>
<path d="M58.3852 22.7342H63.3047V14.8097C63.3047 10.9774 65.1812 8.60652 68.2918 8.60652C70.6078 8.60652 71.7574 9.75947 71.7574 11.9679V22.7342H76.6768V10.8312C76.6768 7.25871 74.496 5.37502 70.4388 5.37502C66.7534 5.37502 64.2345 6.93394 62.7468 10.1817L62.4087 10.0355C63.0849 8.10312 63.3216 6.95017 63.3216 5.68355H58.3852V22.7342Z" fill="white"/>
<path d="M91.3149 23.1402C97.1135 23.1402 100.359 20.8992 100.85 16.5635L95.8794 16.0276C95.6765 18.7557 94.1212 20.136 91.3318 20.136C88.2043 20.136 86.5814 18.2523 86.5814 14.5337V13.738C86.5814 10.1005 88.2212 8.26551 91.2811 8.26551C94.1043 8.26551 95.5751 9.77571 95.7948 12.7961L100.697 12.2602C100.309 7.66468 97.1811 5.27759 91.298 5.27759C84.9078 5.27759 81.5436 8.28175 81.5436 14.0303V14.2414C81.5436 20.0873 84.8739 23.1402 91.3149 23.1402Z" fill="white"/>
<path d="M105.75 22.7342H110.67V14.8097C110.67 10.9774 112.529 8.62276 115.657 8.62276C117.973 8.62276 119.122 9.75947 119.122 11.9679V22.7342H124.042V10.8312C124.042 7.25871 121.844 5.37502 117.804 5.37502C114.084 5.37502 111.582 6.93393 110.112 10.1654L109.757 10.0355C110.416 8.21679 110.653 6.86898 110.67 5.26135V0H105.75V22.7342Z" fill="white"/>
<path d="M134.251 23.1564C138.223 23.1564 141.114 21.4514 142.179 18.5609L142.517 18.6421C141.875 21.7924 142.551 23.1564 146.439 23.1564C146.93 23.1564 147.42 23.1077 147.826 23.0427L148.4 20.2334L147.555 20.2172C146.625 20.201 146.355 19.9899 146.355 18.8369V11.0261C146.355 7.16128 143.684 5.31006 137.987 5.31006C131.935 5.31006 128.875 7.59972 129.128 11.562L133.98 11.9517C133.777 9.33727 135.163 8.15184 137.885 8.15184C140.32 8.15184 141.469 9.01249 141.469 10.9774V11.9355L136.668 12.7799C131.867 13.6405 128.689 15.102 128.689 18.6745V18.7232C128.689 21.5488 130.684 23.1564 134.251 23.1564ZM136.212 20.0061C134.555 20.0061 133.659 19.4378 133.659 18.2686V18.2361C133.659 16.5635 135.231 15.8815 138.342 15.2969L141.469 14.7123V15.508C141.469 18.1224 139.018 20.0061 136.212 20.0061Z" fill="white"/>
<path d="M152.54 22.7342H157.46V15.6054C157.46 11.156 158.897 9.51589 162.65 9.25607L165.067 9.07745L164.492 5.14768C160.52 5.43997 158.677 6.64164 156.851 10.1817L156.53 10.0355C157.324 7.76211 157.51 6.85274 157.477 5.68355H152.54V22.7342Z" fill="white"/>
<path d="M175.935 23.0427C179.587 23.0427 181.971 21.4189 183.171 18.4797L183.526 18.5933C182.951 20.3796 182.647 21.7924 182.63 22.7342H187.6V0H182.681V4.62804C182.681 6.4143 182.934 7.85954 183.543 9.82443L183.205 9.95434C182.004 7.03137 179.604 5.34254 175.935 5.34254C170.864 5.34254 168.193 8.31423 168.193 13.9978V14.4037C168.193 20.0711 170.864 23.0427 175.935 23.0427ZM177.795 20.1198C174.752 20.1198 173.163 18.2523 173.163 14.5661V13.8192C173.163 10.1167 174.752 8.23303 177.795 8.23303C180.973 8.23303 182.681 10.2142 182.681 13.9003V14.4849C182.681 18.1549 180.973 20.1198 177.795 20.1198Z" fill="white"/>
</svg>
